<svg xmlns="http://www.w3.org/2000/svg" version="1.1"
    xmlns:xlink="http://www.w3.org/1999/xlink"
    xmlns:svgjs="http://svgjs.com/svgjs" width="24" height="24" x="0" y="0" viewBox="0 0 682.667 682.667" style="enable-background:new 0 0 512 512" xml:space="preserve">
    <g>
        <defs>
            <clipPath id="b" clipPathUnits="userSpaceOnUse">
                <path d="M0 512h512V0H0Z" fill="#ffffff" data-original="#000000" opacity="1"></path>
            </clipPath>
        </defs>
        <mask id="a">
            <rect width="100%" height="100%" fill="#ffffff" data-original="#ffffff"></rect>
        </mask>
        <g mask="url(#a)">
            <g clip-path="url(#b)" transform="matrix(1.33333 0 0 -1.33333 0 682.667)">
                <path d="M0 0c0 45.287 36.713 82 82 82s82-36.713 82-82-36.713-82-82-82S0-45.287 0 0Z" style="stroke-width:40;stroke-linecap:round;stroke-linejoin:round;stroke-miterlimit:10;stroke-dasharray:none;stroke-opacity:1" transform="translate(106 273.125)" fill="none" stroke="#ffffff" stroke-width="40" stroke-linecap="round" stroke-linejoin="round" stroke-miterlimit="10" stroke-dasharray="none" stroke-opacity="" data-original="#000000" opacity="1"></path>
                <path d="M0 0h-174c-27.129 0-46.39 26.435-38.083 52.261 22.067 68.611 89.699 118.26 165.645 118.26 36.229 0 69.818-11.298 97.438-30.563" style="stroke-width:40;stroke-linecap:round;stroke-linejoin:round;stroke-miterlimit:10;stroke-dasharray:none;stroke-opacity:1" transform="translate(234 20)" fill="none" stroke="#ffffff" stroke-width="40" stroke-linecap="round" stroke-linejoin="round" stroke-miterlimit="10" stroke-dasharray="none" stroke-opacity="" data-original="#000000" opacity="1"></path>
                <path d="M0 0c0 45.287 36.713 82 82 82s82-36.713 82-82-36.713-82-82-82S0-45.287 0 0Z" style="stroke-width:40;stroke-linecap:round;stroke-linejoin:round;stroke-miterlimit:10;stroke-dasharray:none;stroke-opacity:1" transform="translate(313 410)" fill="none" stroke="#ffffff" stroke-width="40" stroke-linecap="round" stroke-linejoin="round" stroke-miterlimit="10" stroke-dasharray="none" stroke-opacity="" data-original="#000000" opacity="1"></path>
                <path d="M0 0c31.085 32.88 75.113 53.396 123.933 53.396 36.228 0 69.817-11.298 97.437-30.563" style="stroke-width:40;stroke-linecap:round;stroke-linejoin:round;stroke-miterlimit:10;stroke-dasharray:none;stroke-opacity:1" transform="translate(270.63 274)" fill="none" stroke="#ffffff" stroke-width="40" stroke-linecap="round" stroke-linejoin="round" stroke-miterlimit="10" stroke-dasharray="none" stroke-opacity="" data-original="#000000" opacity="1"></path>
                <path d="M0 0v150" style="stroke-width:40;stroke-linecap:round;stroke-linejoin:round;stroke-miterlimit:10;stroke-dasharray:none;stroke-opacity:1" transform="translate(417 20)" fill="none" stroke="#ffffff" stroke-width="40" stroke-linecap="round" stroke-linejoin="round" stroke-miterlimit="10" stroke-dasharray="none" stroke-opacity="" data-original="#000000" opacity="1"></path>
                <path d="M0 0h-150" style="stroke-width:40;stroke-linecap:round;stroke-linejoin:round;stroke-miterlimit:10;stroke-dasharray:none;stroke-opacity:1" transform="translate(492 95)" fill="none" stroke="#ffffff" stroke-width="40" stroke-linecap="round" stroke-linejoin="round" stroke-miterlimit="10" stroke-dasharray="none" stroke-opacity="" data-original="#000000" opacity="1"></path>
            </g>
        </g>
    </g>
</svg>
