<svg xmlns="http://www.w3.org/2000/svg" version="1.1"
    xmlns:xlink="http://www.w3.org/1999/xlink"
    xmlns:svgjs="http://svgjs.com/svgjs" width="24" height="24" x="0" y="0" viewBox="0 0 512 512" style="enable-background:new 0 0 512 512" xml:space="preserve">
    <g>
        <path fill="#61d7a8" d="M270 377c0 74.7-60.3 135-135 135S0 451.7 0 377s60.3-135 135-135 135 60.3 135 135zm0 0" data-original="#61d7a8"></path>
        <path fill="#00ab94" d="M270 377c0 74.7-60.3 135-135 135V242c74.7 0 135 60.3 135 135zm0 0" data-original="#00ab94"></path>
        <path fill="#fff5f5" d="M190.5 357.5 135 413.3l-15 15-40.5-40.8 21-21 19.5 19.2 15-15 34.5-34.2zm0 0" data-original="#fff5f5"></path>
        <path fill="#efe2dd" d="M190.5 357.5 135 413.3v-42.6l34.5-34.2zm0 0" data-original="#efe2dd"></path>
        <path fill="#fdbf00" d="m394.5 308.3-42.3 42.302c-13.2 13.5-31.5 19.796-51.598 19.796-33.903 0-74.102-18-107.403-51.597-53.699-53.403-67.5-123.301-31.8-159l42.3-42.301zm0 0" data-original="#fdbf00"></path>
        <path fill="#ff9100" d="m394.5 308.3-42.3 42.302c-13.2 13.5-31.5 19.796-51.598 19.796-33.903 0-74.102-18-107.403-51.597l105.899-105.903zm0 0" data-original="#ff9100"></path>
        <path fill="#596c76" d="M394.5 308.3c-12.902 12.9-30.602 19.5-51.3 19.5-7.802 0-16.2-.902-24.9-3-28.8-6.6-58.202-23.698-82.8-48.3s-41.7-54-48.3-82.797c-7.5-31.203-1.5-58.5 16.5-76.203 28.198-28.5 79.8-25.8 128.1 6.3l56.4 56.403c32.1 48.297 34.8 99.895 6.3 128.098zm0 0" data-original="#596c76"></path>
        <path fill="#465a61" d="M394.5 308.3c-12.902 12.9-30.602 19.5-51.3 19.5-7.802 0-16.2-.902-24.9-3-28.8-6.6-58.202-23.698-82.8-48.3L360 152l28.2 28.2c32.1 48.3 34.8 99.898 6.3 128.1zm0 0" data-original="#465a61"></path>
        <path fill="#fdbf00" d="M491.602 94.695 324.902 229.7c-11.402 0-22.203-4.5-30-12.597-8.101-7.801-12.601-18.602-12.601-30L417.203 20.293c19.2-24.598 56.399-27.598 79.2-4.8 22.8 22.5 20.1 59.702-4.801 79.202zm0 0" data-original="#fdbf00"></path>
        <path fill="#ff9100" d="M491.602 94.695 324.902 229.7c-11.402 0-22.203-4.5-30-12.597l201.5-201.61c22.801 22.5 20.102 59.703-4.8 79.203zm0 0" data-original="#ff9100"></path>
    </g>
</svg>
