<svg xmlns="http://www.w3.org/2000/svg" version="1.1"
    xmlns:xlink="http://www.w3.org/1999/xlink"
    xmlns:svgjs="http://svgjs.com/svgjs" width="24" height="24" x="0" y="0" viewBox="0 0 682.667 682.667" style="enable-background:new 0 0 512 512" xml:space="preserve" class="">
    <g>
        <defs>
            <clipPath id="a" clipPathUnits="userSpaceOnUse">
                <path d="M0 512h512V0H0Z" fill="#ffffff" data-original="#000000" class="" opacity="1"></path>
            </clipPath>
        </defs>
        <path d="M0 0h191.983" style="stroke-width:15;stroke-linecap:round;stroke-linejoin:round;stroke-miterlimit:10;stroke-dasharray:none;stroke-opacity:1" transform="matrix(1.33333 0 0 -1.33333 89.031 252.035)" fill="none" stroke="#ffffff" stroke-width="15" stroke-linecap="round" stroke-linejoin="round" stroke-miterlimit="10" stroke-dasharray="none" stroke-opacity="" data-original="#000000" opacity="1"></path>
        <path d="M0 0h191.983" style="stroke-width:15;stroke-linecap:round;stroke-linejoin:round;stroke-miterlimit:10;stroke-dasharray:none;stroke-opacity:1" transform="matrix(1.33333 0 0 -1.33333 89.031 322.296)" fill="none" stroke="#ffffff" stroke-width="15" stroke-linecap="round" stroke-linejoin="round" stroke-miterlimit="10" stroke-dasharray="none" stroke-opacity="" data-original="#000000" opacity="1"></path>
        <path d="M0 0h191.983" style="stroke-width:15;stroke-linecap:round;stroke-linejoin:round;stroke-miterlimit:10;stroke-dasharray:none;stroke-opacity:1" transform="matrix(1.33333 0 0 -1.33333 89.031 392.557)" fill="none" stroke="#ffffff" stroke-width="15" stroke-linecap="round" stroke-linejoin="round" stroke-miterlimit="10" stroke-dasharray="none" stroke-opacity="" data-original="#000000" opacity="1"></path>
        <path d="M0 0h191.983" style="stroke-width:15;stroke-linecap:round;stroke-linejoin:round;stroke-miterlimit:10;stroke-dasharray:none;stroke-opacity:1" transform="matrix(1.33333 0 0 -1.33333 89.031 462.818)" fill="none" stroke="#ffffff" stroke-width="15" stroke-linecap="round" stroke-linejoin="round" stroke-miterlimit="10" stroke-dasharray="none" stroke-opacity="" data-original="#000000" opacity="1"></path>
        <path d="M0 0h96.238" style="stroke-width:15;stroke-linecap:round;stroke-linejoin:round;stroke-miterlimit:10;stroke-dasharray:none;stroke-opacity:1" transform="matrix(1.33333 0 0 -1.33333 89.031 565.787)" fill="none" stroke="#ffffff" stroke-width="15" stroke-linecap="round" stroke-linejoin="round" stroke-miterlimit="10" stroke-dasharray="none" stroke-opacity="" data-original="#000000" opacity="1"></path>
        <g clip-path="url(#a)" transform="matrix(1.33333 0 0 -1.33333 0 682.667)">
            <path d="M0 0h-13.002a9.312 9.312 0 0 0-9.312 9.312v24.334a9.312 9.312 0 0 0 9.312 9.312h153.967a9.312 9.312 0 0 0 9.312-9.312V9.312A9.312 9.312 0 0 0 140.965 0H35.06m178.79-34.782V65.06c0 16.351-13.255 29.606-29.607 29.606H-70.194a29.608 29.608 0 0 1-20.935-8.672l-77.323-77.323a29.605 29.605 0 0 1-8.671-20.934v-360.465c0-16.351 13.255-29.606 29.605-29.606h331.761c16.352 0 29.607 13.255 29.607 29.606v10.099" style="stroke-width:15;stroke-linecap:round;stroke-linejoin:round;stroke-miterlimit:10;stroke-dasharray:none;stroke-opacity:1" transform="translate(187.401 409.813)" fill="none" stroke="#ffffff" stroke-width="15" stroke-linecap="round" stroke-linejoin="round" stroke-miterlimit="10" stroke-dasharray="none" stroke-opacity="" data-original="#000000" opacity="1"></path>
            <path d="M0 0v-75.754c0-6.586 7.222-10.621 12.831-7.168l27.503 16.931a8.41 8.41 0 0 0 4.412 1.249c1.53 0 3.061-.416 4.413-1.249l27.503-16.931c5.609-3.453 12.83.582 12.83 7.168V0" style="stroke-width:15;stroke-linecap:round;stroke-linejoin:round;stroke-miterlimit:10;stroke-dasharray:none;stroke-opacity:1" transform="translate(356.505 147.018)" fill="none" stroke="#ffffff" stroke-width="15" stroke-linecap="round" stroke-linejoin="round" stroke-miterlimit="10" stroke-dasharray="none" stroke-opacity="" data-original="#000000" opacity="1"></path>
            <path d="M0 0c-30.571 0-55.354 24.783-55.354 55.354 0 30.571 24.783 55.354 55.354 55.354 30.571 0 55.354-24.783 55.354-55.354C55.354 24.783 30.571 0 0 0Zm96.517 42.693a22.487 22.487 0 0 0 0 25.322c8.283 12.157 2.855 28.86-10.992 33.827a22.485 22.485 0 0 0-14.883 20.486c-.445 14.703-14.655 25.027-28.775 20.906a22.489 22.489 0 0 0-24.083 7.826c-4.501 5.816-11.142 8.725-17.784 8.725-6.642 0-13.282-2.909-17.783-8.725a22.49 22.49 0 0 0-24.083-7.826c-14.121 4.121-28.33-6.203-28.776-20.906a22.485 22.485 0 0 0-14.883-20.486c-13.846-4.967-19.274-21.67-10.992-33.827a22.487 22.487 0 0 0 0-25.322c-8.282-12.156-2.854-28.86 10.992-33.827A22.484 22.484 0 0 0-70.642-11.62v0c.415-13.702 12.785-23.601 25.896-21.549.958.149 1.919.362 2.88.643a22.487 22.487 0 0 0 24.083-7.825c9.002-11.634 26.565-11.634 35.567 0a22.487 22.487 0 0 0 24.083 7.825 22.692 22.692 0 0 1 2.879-.643c13.112-2.052 25.482 7.847 25.896 21.549v0A22.484 22.484 0 0 0 85.525 8.866c13.847 4.967 19.275 21.671 10.992 33.827z" style="stroke-width:15;stroke-linecap:round;stroke-linejoin:round;stroke-miterlimit:10;stroke-dasharray:none;stroke-opacity:1" transform="translate(401.251 180.188)" fill="none" stroke="#ffffff" stroke-width="15" stroke-linecap="round" stroke-linejoin="round" stroke-miterlimit="10" stroke-dasharray="none" stroke-opacity="" data-original="#000000" opacity="1"></path>
            <path d="M0 0c-30.571 0-55.354-24.783-55.354-55.354 0-30.572 24.783-55.354 55.354-55.354 30.571 0 55.354 24.782 55.354 55.354C55.354-24.783 30.571 0 0 0Z" style="stroke-width:15;stroke-linecap:round;stroke-linejoin:round;stroke-miterlimit:10;stroke-dasharray:none;stroke-opacity:1" transform="translate(401.251 290.896)" fill="none" stroke="#ffffff" stroke-width="15" stroke-linecap="round" stroke-linejoin="round" stroke-miterlimit="10" stroke-dasharray="none" stroke-opacity="" data-original="#000000" opacity="1"></path>
            <path d="M0 0v-73.651c0-10.138-8.218-18.355-18.354-18.355h-73.652" style="stroke-width:15;stroke-linecap:round;stroke-linejoin:round;stroke-miterlimit:10;stroke-dasharray:none;stroke-opacity:1" transform="translate(104.943 501.82)" fill="none" stroke="#ffffff" stroke-width="15" stroke-linecap="round" stroke-linejoin="round" stroke-miterlimit="10" stroke-dasharray="none" stroke-opacity="" data-original="#000000" opacity="1"></path>
        </g>
    </g>
</svg>
