<svg xmlns="http://www.w3.org/2000/svg" version="1.1"
    xmlns:xlink="http://www.w3.org/1999/xlink"
    xmlns:svgjs="http://svgjs.com/svgjs" width="24" height="24" x="0" y="0" viewBox="0 0 24 24" style="enable-background:new 0 0 512 512" xml:space="preserve">
    <g>
        <path d="m20.53 7.47-6-6a.75.75 0 0 0-.53-.22H7C4.93 1.25 3.25 2.93 3.25 5v14c0 2.07 1.68 3.75 3.75 3.75h10c2.07 0 3.75-1.68 3.75-3.75V8c0-.2-.08-.39-.22-.53zm-5.78-3.66 3.44 3.44h-3.44zM17 21.25H7c-1.24 0-2.25-1.01-2.25-2.25V5c0-1.24 1.01-2.25 2.25-2.25h6.25V8c0 .41.34.75.75.75h5.25V19c0 1.24-1.01 2.25-2.25 2.25zM7.25 8c0-.41.34-.75.75-.75h2c.41 0 .75.34.75.75s-.34.75-.75.75H8c-.41 0-.75-.34-.75-.75zm9.5 4c0 .41-.34.75-.75.75H8c-.41 0-.75-.34-.75-.75s.34-.75.75-.75h8c.41 0 .75.34.75.75zm0 4c0 .41-.34.75-.75.75H8c-.41 0-.75-.34-.75-.75s.34-.75.75-.75h8c.41 0 .75.34.75.75z" fill="#ffffff" data-original="#000000" opacity="1"></path>
    </g>
</svg>
