<svg xmlns="http://www.w3.org/2000/svg" version="1.1"
    xmlns:xlink="http://www.w3.org/1999/xlink"
    xmlns:svgjs="http://svgjs.com/svgjs" width="24" height="24" x="0" y="0" viewBox="0 0 401.541 401" style="enable-background:new 0 0 512 512" xml:space="preserve">
    <g>
        <path fill="#00acea" d="M381.29 32.242c13.67 13.664 13.67 35.824 0 49.488l-17.68 17.68-61.231-61.23 17.68-17.68c13.671-13.668 35.832-13.668 49.5 0zm0 0" data-original="#00acea"></path>
        <path fill="#00efd1" d="M363.61 99.41 203.46 259.57h-.01l-61.231-61.23 160.16-160.16zm0 0" data-original="#00efd1"></path>
        <path fill="#fedb41" d="m142.219 198.34 61.23 61.23-.57.57-84.688 23.462 23.457-84.692zm0 0" data-original="#fedb41"></path>
        <g fill="#083863">
            <path d="M370.59 250.96c-5.524 0-10 4.477-10 10v88.79c-.02 16.563-13.438 29.98-30 30H50c-16.563-.02-29.98-13.438-30-30V89.16c.02-16.558 13.438-29.98 30-30h88.79c5.523 0 10-4.476 10-10 0-5.523-4.477-10-10-10H50c-27.602.031-49.969 22.399-50 50v260.59c.031 27.602 22.398 49.969 50 50h280.59c27.601-.031 49.969-22.398 50-50v-88.79c0-5.522-4.477-10-10-10zm0 0" fill="#083863" data-original="#083863"></path>
            <path d="M376.633 13.43c-17.59-17.547-46.059-17.547-63.645 0l-178.41 178.41a10.043 10.043 0 0 0-2.566 4.398l-23.457 84.692a9.997 9.997 0 0 0 12.304 12.308l84.692-23.46a10.018 10.018 0 0 0 4.406-2.571l.566-.57L388.36 88.8c17.575-17.57 17.575-46.059 0-63.63zM146.957 217.219l37.613 37.617-52.03 14.414zm56.5 42.355v-.008l6.52 6.52zm0-14.14-47.094-47.094L302.38 52.324l47.09 47.086zM374.219 74.66l-10.61 10.61-47.086-47.09 10.61-10.61c9.765-9.746 25.582-9.746 35.351 0l11.735 11.746c9.765 9.758 9.765 25.586 0 35.344zm0 0" fill="#083863" data-original="#083863"></path>
        </g>
    </g>
</svg>
