<svg xmlns="http://www.w3.org/2000/svg" version="1.1"
    xmlns:xlink="http://www.w3.org/1999/xlink"
    xmlns:svgjs="http://svgjs.com/svgjs" width="24" height="24" x="0" y="0" viewBox="0 0 64 64" style="enable-background:new 0 0 512 512" xml:space="preserve" class="">
    <g>
        <path d="M8.382 46.01v5.483c3.087-.534 6.088-.804 8.936-.804 4.815 0 9.39.774 13.623 2.304v-5.421c-5.904-2.694-13.388-3.217-22.559-1.562zM31.922 28.244l.078-.003c.025 0 .048.003.073.004 5.305-.04 9.609-4.364 9.609-9.679 0-5.339-4.343-9.682-9.682-9.682s-9.682 4.343-9.682 9.682c0 5.312 4.301 9.636 9.604 9.678zM33.06 47.572v5.421c6.736-2.434 14.251-2.936 22.559-1.5V46.01c-9.171-1.655-16.656-1.132-22.559 1.562zM49.944 43.125a18.897 18.897 0 0 0-4.505-7.199 18.879 18.879 0 0 0-13.366-5.562c-.025 0-.048.004-.073.004-.026 0-.052-.004-.078-.004a18.99 18.99 0 0 0-17.855 12.759c7.012-.572 12.977.303 17.933 2.614 4.958-2.312 10.927-3.186 17.944-2.612z" fill="#ffffff" data-original="#000000" class="" opacity="1"></path>
    </g>
</svg>
